<svg width="41" height="33" viewBox="0 0 41 33" fill="none" xmlns="http://www.w3.org/2000/svg">
<path d="M21.0234 12.9375C21.0234 13.3438 20.9141 13.7344 20.6953 14.1094C20.4766 14.4844 20.2109 14.8359 19.8984 15.1641C19.5859 15.4922 19.2578 15.7969 18.9141 16.0781C18.5703 16.3438 18.2812 16.5859 18.0469 16.8047C17.9688 16.8516 17.9062 16.875 17.8594 16.875C17.8125 16.8594 17.7578 16.8906 17.6953 16.9688C17.6641 17 17.6172 17.0547 17.5547 17.1328C17.5078 17.2109 17.4453 17.2969 17.3672 17.3906C17.3047 17.4844 17.2344 17.5781 17.1562 17.6719C17.0938 17.75 17.0391 17.8047 16.9922 17.8359C16.8984 17.9141 16.7891 17.9531 16.6641 17.9531C16.5391 17.9531 16.4141 17.9766 16.2891 18.0234C16.2109 18.0547 16.0625 18.1484 15.8438 18.3047C15.625 18.4609 15.3438 18.6484 15 18.8672C14.6719 19.0703 14.2891 19.2969 13.8516 19.5469C13.4297 19.7969 12.9609 20.0391 12.4453 20.2734C12.3516 20.3203 12.2578 20.3828 12.1641 20.4609C12.0703 20.5391 11.9922 20.6016 11.9297 20.6484C11.8203 20.6953 11.7031 20.7188 11.5781 20.7188C11.4688 20.7188 11.3438 20.75 11.2031 20.8125C11.1562 20.8438 11.0703 20.9062 10.9453 21C10.8359 21.0781 10.75 21.1328 10.6875 21.1641C10.5156 21.2266 10.3438 21.2734 10.1719 21.3047C10.0156 21.3203 9.84375 21.3516 9.65625 21.3984C9.46875 21.4297 9.25781 21.4766 9.02344 21.5391C8.80469 21.6016 8.54688 21.7109 8.25 21.8672C8.20312 21.8828 8.15625 21.9297 8.10938 22.0078C8.07812 22.0703 7.95312 22.1016 7.73438 22.1016C7.5625 22.1016 7.4375 22.1406 7.35938 22.2188C7.29688 22.2812 7.26562 22.4297 7.26562 22.6641C7.26562 22.7578 7.26562 22.8672 7.26562 22.9922C7.28125 23.1172 7.28906 23.2578 7.28906 23.4141C7.28906 23.6172 7.26562 23.8438 7.21875 24.0938C7.1875 24.3281 7.14062 24.6094 7.07812 24.9375C7.03125 25.25 6.96875 25.6172 6.89062 26.0391C6.8125 26.4609 6.74219 26.9375 6.67969 27.4688C6.57031 27.6875 6.5 27.9141 6.46875 28.1484C6.4375 28.3672 6.42188 28.6094 6.42188 28.875C6.42188 28.9531 6.42969 29.0547 6.44531 29.1797C6.46094 29.3047 6.48438 29.4297 6.51562 29.5547C6.54688 29.6641 6.59375 29.7578 6.65625 29.8359C6.73438 29.9141 6.82812 29.9531 6.9375 29.9531C7.0625 29.9531 7.22656 29.9219 7.42969 29.8594C7.63281 29.7812 7.84375 29.7422 8.0625 29.7422C8.32812 29.7422 8.51562 29.7812 8.625 29.8594C8.75 29.9375 8.91406 30.0156 9.11719 30.0938C8.94531 30.4219 8.64062 30.6484 8.20312 30.7734C7.78125 30.8984 7.30469 30.9844 6.77344 31.0312C6.24219 31.0938 5.70312 31.1484 5.15625 31.1953C4.60938 31.2422 4.125 31.3438 3.70312 31.5C3.54688 31.5312 3.41406 31.5938 3.30469 31.6875C3.19531 31.7969 3.07031 31.8516 2.92969 31.8516C2.83594 31.8516 2.72656 31.8438 2.60156 31.8281C2.49219 31.8281 2.375 31.8281 2.25 31.8281C1.85938 31.8281 1.53125 31.8906 1.26562 32.0156C1.01562 32.1406 0.8125 32.2031 0.65625 32.2031C0.609375 32.2031 0.546875 32.1641 0.46875 32.0859C0.390625 32.0234 0.3125 31.9297 0.234375 31.8047C0.171875 31.6953 0.117188 31.5781 0.0703125 31.4531C0.0234375 31.3281 0 31.2031 0 31.0781C0 31 0.09375 30.9062 0.28125 30.7969C0.484375 30.6719 0.789062 30.6094 1.19531 30.6094C1.32031 30.6094 1.45312 30.625 1.59375 30.6562C1.73438 30.6719 1.86719 30.6797 1.99219 30.6797C2.28906 30.6797 2.50781 30.5859 2.64844 30.3984C2.78906 30.1953 2.88281 29.9453 2.92969 29.6484C2.99219 29.3359 3.03125 29.0078 3.04688 28.6641C3.07812 28.3047 3.11719 27.9609 3.16406 27.6328C3.22656 27.2734 3.32031 26.8828 3.44531 26.4609C3.57031 26.0391 3.65625 25.6719 3.70312 25.3594C3.75 24.9844 3.76562 24.6641 3.75 24.3984C3.75 24.1172 3.78906 23.7969 3.86719 23.4375C3.88281 23.375 3.91406 23.2969 3.96094 23.2031C4.02344 23.1094 4.05469 23.0703 4.05469 23.0859C4.05469 23.0391 4.03125 22.9766 3.98438 22.8984C3.95312 22.8203 3.91406 22.7344 3.86719 22.6406C3.83594 22.5469 3.79688 22.4609 3.75 22.3828C3.71875 22.3047 3.70312 22.25 3.70312 22.2188C3.73438 22.0469 3.77344 21.9297 3.82031 21.8672C3.88281 21.8047 3.96094 21.6875 4.05469 21.5156C4.16406 21.3125 4.26562 21.0234 4.35938 20.6484C4.45312 20.2578 4.53906 19.8203 4.61719 19.3359C4.69531 18.8516 4.77344 18.3438 4.85156 17.8125C4.92969 17.2812 5.01562 16.7656 5.10938 16.2656C5.25 15.5625 5.36719 14.7734 5.46094 13.8984C5.55469 13.0234 5.66406 12.1172 5.78906 11.1797C5.80469 11.1328 5.84375 10.9531 5.90625 10.6406C5.96875 10.3125 6.03906 9.9375 6.11719 9.51562C6.19531 9.09375 6.26562 8.66406 6.32812 8.22656C6.39062 7.78906 6.42188 7.42188 6.42188 7.125C6.42188 6.79688 6.34375 6.60156 6.1875 6.53906C6.04688 6.47656 5.79688 6.44531 5.4375 6.44531C5.15625 6.44531 4.86719 6.46875 4.57031 6.51562C4.27344 6.54688 4.03906 6.58594 3.86719 6.63281C3.64844 6.69531 3.44531 6.80469 3.25781 6.96094C3.07031 7.10156 2.89062 7.25 2.71875 7.40625C2.54688 7.54688 2.38281 7.67969 2.22656 7.80469C2.08594 7.91406 1.95312 7.96875 1.82812 7.96875C1.70312 7.96875 1.60938 7.92188 1.54688 7.82812C1.48438 7.73438 1.45312 7.64062 1.45312 7.54688C1.45312 7.42188 1.5 7.29688 1.59375 7.17188C1.70312 7.03125 1.82812 6.89062 1.96875 6.75C2.125 6.60938 2.28125 6.47656 2.4375 6.35156C2.59375 6.21094 2.71875 6.07031 2.8125 5.92969C2.90625 5.80469 2.97656 5.69531 3.02344 5.60156C3.07031 5.50781 3.11719 5.41406 3.16406 5.32031C3.22656 5.22656 3.29688 5.13281 3.375 5.03906C3.45312 4.94531 3.5625 4.83594 3.70312 4.71094C3.78125 4.64844 3.88281 4.60938 4.00781 4.59375C4.13281 4.5625 4.25781 4.48438 4.38281 4.35938C4.47656 4.25 4.53906 4.13281 4.57031 4.00781C4.60156 3.86719 4.64062 3.74219 4.6875 3.63281C4.73438 3.50781 4.8125 3.40625 4.92188 3.32812C5.03125 3.23438 5.21875 3.1875 5.48438 3.1875C5.76562 3.1875 6.07812 3.21875 6.42188 3.28125C6.78125 3.32812 7.11719 3.35156 7.42969 3.35156C7.89844 3.35156 8.28125 3.17969 8.57812 2.83594C8.89062 2.47656 9.15625 2.09375 9.375 1.6875C9.59375 1.26562 9.78906 0.882813 9.96094 0.539062C10.1328 0.179688 10.3281 0 10.5469 0C10.6719 0 10.7734 0.0625 10.8516 0.1875C10.9297 0.296875 10.9688 0.421875 10.9688 0.5625C10.9688 0.703125 10.9219 0.890625 10.8281 1.125C10.7344 1.34375 10.6328 1.57812 10.5234 1.82812C10.4297 2.07813 10.3359 2.33594 10.2422 2.60156C10.1484 2.85156 10.1016 3.08594 10.1016 3.30469C10.1016 3.46094 10.1562 3.58594 10.2656 3.67969C10.375 3.75781 10.5234 3.82812 10.7109 3.89062C10.8984 3.95312 11.1094 4.00781 11.3438 4.05469C11.5938 4.08594 11.8438 4.13281 12.0938 4.19531C12.1875 4.22656 12.3906 4.30469 12.7031 4.42969C13.0156 4.55469 13.3516 4.70312 13.7109 4.875C14.0703 5.03125 14.4141 5.19531 14.7422 5.36719C15.0703 5.53906 15.2969 5.67188 15.4219 5.76562C15.4844 5.8125 15.5469 5.875 15.6094 5.95312C15.6719 6.03125 15.7266 6.08594 15.7734 6.11719C15.9922 6.27344 16.1953 6.38281 16.3828 6.44531C16.5859 6.49219 16.7344 6.55469 16.8281 6.63281C17.0156 6.80469 17.1797 7.03125 17.3203 7.3125C17.4609 7.59375 17.6406 7.83594 17.8594 8.03906C18.1719 8.35156 18.5078 8.625 18.8672 8.85938C19.2266 9.07812 19.4766 9.27344 19.6172 9.44531C19.6797 9.52344 19.7188 9.60938 19.7344 9.70312C19.75 9.79688 19.7734 9.88281 19.8047 9.96094C19.8672 10.1484 19.9688 10.3906 20.1094 10.6875C20.25 10.9844 20.3828 11.2891 20.5078 11.6016C20.6484 11.8984 20.7656 12.1719 20.8594 12.4219C20.9688 12.6719 21.0234 12.8438 21.0234 12.9375ZM17.6953 13.125C17.6484 12.9375 17.5234 12.6953 17.3203 12.3984C17.1328 12.0859 16.9219 11.7734 16.6875 11.4609C16.4531 11.1484 16.2188 10.8516 15.9844 10.5703C15.75 10.2891 15.5625 10.0859 15.4219 9.96094C15.3125 9.86719 15.1797 9.79688 15.0234 9.75C14.8672 9.70312 14.7656 9.65625 14.7188 9.60938C14.4062 9.32812 14.0547 9.10156 13.6641 8.92969C13.2734 8.75781 12.9844 8.57812 12.7969 8.39062C12.5 8.10938 12.1641 7.91406 11.7891 7.80469C11.4141 7.67969 11.0469 7.58594 10.6875 7.52344C10.5938 7.47656 10.4766 7.39844 10.3359 7.28906C10.1953 7.17969 10.0859 7.125 10.0078 7.125C9.83594 7.125 9.69531 7.22656 9.58594 7.42969C9.47656 7.61719 9.39062 7.82812 9.32812 8.0625C9.26562 8.29688 9.21875 8.52344 9.1875 8.74219C9.15625 8.94531 9.13281 9.0625 9.11719 9.09375C9.10156 9.125 9.09375 9.15625 9.09375 9.1875C9.09375 9.34375 9.13281 9.45312 9.21094 9.51562C9.28906 9.5625 9.32812 9.67969 9.32812 9.86719C9.32812 10.1172 9.28125 10.3906 9.1875 10.6875C9.09375 10.9688 9.01562 11.2578 8.95312 11.5547C8.84375 12.1328 8.76562 12.6484 8.71875 13.1016C8.67188 13.5391 8.63281 13.9453 8.60156 14.3203C8.58594 14.6797 8.5625 15.0156 8.53125 15.3281C8.51562 15.6406 8.47656 15.9531 8.41406 16.2656C8.38281 16.4688 8.32031 16.6484 8.22656 16.8047C8.14844 16.9609 8.09375 17.1328 8.0625 17.3203C8 17.8359 7.97656 18.3594 7.99219 18.8906C8.00781 19.4062 7.97656 19.9297 7.89844 20.4609C7.97656 20.4766 8.09375 20.4844 8.25 20.4844C8.5 20.4844 8.74219 20.4609 8.97656 20.4141C9.21094 20.3516 9.41406 20.2891 9.58594 20.2266C9.77344 20.1484 9.91406 20.0859 10.0078 20.0391C10.1172 19.9766 10.1719 19.9453 10.1719 19.9453C10.5469 19.8203 10.9297 19.7188 11.3203 19.6406C11.7266 19.5469 12.1016 19.4141 12.4453 19.2422C12.6641 19.1328 12.8828 18.9688 13.1016 18.75C13.3359 18.5312 13.5781 18.3438 13.8281 18.1875C13.9688 18.1094 14.1172 18.0547 14.2734 18.0234C14.4297 17.9922 14.5781 17.9297 14.7188 17.8359C14.8125 17.7891 14.875 17.7344 14.9062 17.6719C14.9375 17.6094 14.9922 17.5469 15.0703 17.4844C15.1484 17.4219 15.2344 17.3984 15.3281 17.4141C15.4375 17.4141 15.5312 17.3828 15.6094 17.3203C15.6719 17.2578 15.7422 17.1719 15.8203 17.0625C15.8984 16.9531 15.9766 16.8359 16.0547 16.7109C16.1328 16.5703 16.2031 16.4453 16.2656 16.3359C16.3438 16.2266 16.4062 16.1406 16.4531 16.0781C16.8281 15.625 17.1406 15.2109 17.3906 14.8359C17.6406 14.4453 17.7656 14.0469 17.7656 13.6406C17.7656 13.4688 17.7422 13.2969 17.6953 13.125ZM40.2422 25.7109V25.8047C40.2422 25.9766 40.2031 26.125 40.125 26.25C40.0625 26.375 39.9766 26.5 39.8672 26.625C39.7578 26.7344 39.6406 26.8438 39.5156 26.9531C39.3906 27.0625 39.2812 27.1797 39.1875 27.3047C39.1406 27.3828 39.1172 27.4688 39.1172 27.5625C39.1328 27.6562 39.1016 27.7422 39.0234 27.8203C38.8203 28.0391 38.5703 28.2812 38.2734 28.5469C37.9766 28.8125 37.7031 29.0938 37.4531 29.3906C37.1875 29.7031 36.9844 29.9922 36.8438 30.2578C36.7031 30.5234 36.5 30.7578 36.2344 30.9609C35.9688 31.1641 35.5781 31.3203 35.0625 31.4297C34.5625 31.5391 33.8203 31.5938 32.8359 31.5938C32.4297 31.5938 32.0234 31.5859 31.6172 31.5703C31.2109 31.5547 30.8281 31.5312 30.4688 31.5C29.9844 31.4531 29.5547 31.375 29.1797 31.2656C28.8047 31.1562 28.3594 31.1016 27.8438 31.1016C27.7344 31.1016 27.6172 31.1094 27.4922 31.125C27.3672 31.1562 27.2422 31.1797 27.1172 31.1953C27.0078 31.2266 26.9141 31.25 26.8359 31.2656C26.7734 31.2969 26.7422 31.3125 26.7422 31.3125C26.6328 31.3125 26.5625 31.2812 26.5312 31.2188C26.5 31.1719 26.4688 31.1484 26.4375 31.1484C26.4375 31.1484 26.3828 31.1484 26.2734 31.1484C26.1641 31.1641 26.0391 31.1797 25.8984 31.1953C25.7578 31.2109 25.6016 31.2266 25.4297 31.2422C25.2734 31.2734 25.1406 31.2969 25.0312 31.3125C24.9062 31.3281 24.7578 31.3672 24.5859 31.4297C24.4141 31.4922 24.2422 31.5547 24.0703 31.6172C23.8984 31.6797 23.7188 31.7344 23.5312 31.7812C23.3594 31.8438 23.1953 31.875 23.0391 31.875C22.8984 31.875 22.75 31.8359 22.5938 31.7578C22.4375 31.6797 22.3594 31.5312 22.3594 31.3125C22.3594 31.2031 22.3984 31.1016 22.4766 31.0078C22.5703 30.9141 22.6719 30.8281 22.7812 30.75C22.9062 30.6562 23.0312 30.5781 23.1562 30.5156C23.2812 30.4375 23.375 30.3516 23.4375 30.2578C23.4844 30.2109 23.5703 30.0547 23.6953 29.7891C23.8203 29.5078 23.9141 29.2578 23.9766 29.0391C24.0078 28.9453 24.0625 28.8516 24.1406 28.7578C24.2344 28.6484 24.2969 28.5703 24.3281 28.5234C24.5156 27.9141 24.5938 27.2656 24.5625 26.5781C24.5469 25.8906 24.5859 25.1953 24.6797 24.4922C24.7109 24.2578 24.7656 24.0469 24.8438 23.8594C24.9375 23.6562 25 23.4609 25.0312 23.2734C25.0781 22.8047 25.0938 22.3047 25.0781 21.7734C25.0781 21.2422 25.125 20.7422 25.2188 20.2734C25.2188 20.2266 25.2109 20.1797 25.1953 20.1328C25.1953 20.0703 25.1953 20.0078 25.1953 19.9453C25.1953 19.8516 25.2031 19.7891 25.2188 19.7578C25.2344 19.7109 25.2422 19.625 25.2422 19.5C25.2422 19.3594 25.2422 19.2109 25.2422 19.0547C25.2578 18.8828 25.2734 18.7031 25.2891 18.5156C25.3047 18.3281 25.3359 18.1641 25.3828 18.0234C25.3984 17.9609 25.4219 17.8516 25.4531 17.6953C25.5 17.5234 25.5391 17.3438 25.5703 17.1562C25.6172 16.9531 25.6562 16.75 25.6875 16.5469C25.7188 16.3281 25.7344 16.1484 25.7344 16.0078C25.7344 15.9609 25.7266 15.9141 25.7109 15.8672C25.7109 15.8047 25.7109 15.75 25.7109 15.7031C25.7109 15.6875 25.7578 15.5859 25.8516 15.3984C25.9609 15.1953 26.0312 14.9609 26.0625 14.6953C26.1562 14.0547 26.2188 13.3828 26.25 12.6797C26.2969 11.9766 26.3594 11.25 26.4375 10.5C26.4844 10.0156 26.5312 9.53906 26.5781 9.07031C26.6406 8.58594 26.6719 8.16406 26.6719 7.80469C26.6719 7.44531 26.625 7.17188 26.5312 6.98438C26.4531 6.79688 26.2812 6.70312 26.0156 6.70312C25.8438 6.70312 25.6641 6.72656 25.4766 6.77344C25.3047 6.80469 25.1328 6.82031 24.9609 6.82031C24.8828 6.82031 24.7812 6.80469 24.6562 6.77344C24.5469 6.74219 24.4922 6.67188 24.4922 6.5625C24.4922 6.10938 24.6562 5.78125 24.9844 5.57812C25.3281 5.375 25.75 5.23438 26.25 5.15625C26.75 5.07812 27.2812 5.03906 27.8438 5.03906C28.4219 5.02344 28.9453 4.97656 29.4141 4.89844C29.5234 4.88281 29.625 4.875 29.7188 4.875C29.8125 4.85938 29.9219 4.84375 30.0469 4.82812C30.1719 4.8125 30.3203 4.78125 30.4922 4.73438C30.6641 4.6875 30.8828 4.61719 31.1484 4.52344C31.2734 4.50781 31.4453 4.45312 31.6641 4.35938C31.8828 4.25 32.1719 4.19531 32.5312 4.19531C32.7031 4.19531 32.8438 4.24219 32.9531 4.33594C33.0781 4.42969 33.1406 4.58594 33.1406 4.80469C33.1406 5.02344 33.0469 5.17188 32.8594 5.25C32.6719 5.32812 32.4531 5.38281 32.2031 5.41406C31.9531 5.42969 31.7109 5.44531 31.4766 5.46094C31.2422 5.46094 31.0781 5.5 30.9844 5.57812C30.8438 5.70312 30.7344 5.83594 30.6562 5.97656C30.5781 6.10156 30.5234 6.25 30.4922 6.42188C30.4609 6.57812 30.4297 6.75 30.3984 6.9375C30.3672 7.125 30.3281 7.32031 30.2812 7.52344C30.1875 7.88281 30.0781 8.24219 29.9531 8.60156C29.8438 8.94531 29.7734 9.22656 29.7422 9.44531C29.6328 10.1016 29.5703 10.8359 29.5547 11.6484C29.5547 12.4453 29.5078 13.2891 29.4141 14.1797C29.3359 14.8828 29.2422 15.6016 29.1328 16.3359C29.0234 17.0547 28.9375 17.7891 28.875 18.5391C28.8281 19.0391 28.7891 19.5 28.7578 19.9219C28.7422 20.3438 28.7109 20.7812 28.6641 21.2344C28.6328 21.6875 28.5781 22.1875 28.5 22.7344C28.4219 23.2812 28.3125 23.9297 28.1719 24.6797C28.1406 24.7891 28.1172 24.9609 28.1016 25.1953C28.0859 25.4141 28.0625 25.6562 28.0312 25.9219C28.0156 26.1875 27.9922 26.4453 27.9609 26.6953C27.9297 26.9453 27.8906 27.1484 27.8438 27.3047C27.7969 27.4766 27.7344 27.625 27.6562 27.75C27.5781 27.875 27.4922 28 27.3984 28.125C27.3203 28.2344 27.25 28.3516 27.1875 28.4766C27.1406 28.5859 27.1172 28.7188 27.1172 28.875C27.2578 28.9688 27.3906 29.0156 27.5156 29.0156C27.7344 29.0156 27.9375 28.9453 28.125 28.8047C28.3125 28.6484 28.5 28.5547 28.6875 28.5234C29.0469 28.4453 29.3984 28.4219 29.7422 28.4531C30.1016 28.4688 30.4531 28.4297 30.7969 28.3359C31.0312 28.2734 31.3359 28.2422 31.7109 28.2422C32.0703 28.2422 32.4531 28.2578 32.8594 28.2891C33.2812 28.3203 33.7031 28.3594 34.125 28.4062C34.5625 28.4531 34.9844 28.4922 35.3906 28.5234C35.7969 28.5547 36.1641 28.5703 36.4922 28.5703C36.8984 28.5703 37.1797 28.4844 37.3359 28.3125C37.5078 28.125 37.6641 27.9609 37.8047 27.8203C37.8672 27.7422 37.9531 27.6797 38.0625 27.6328C38.1875 27.5859 38.2812 27.5312 38.3438 27.4688C38.3906 27.3906 38.4062 27.3047 38.3906 27.2109C38.3906 27.1016 38.4297 27.0078 38.5078 26.9297C38.5703 26.8672 38.6562 26.8125 38.7656 26.7656C38.8906 26.7188 38.9766 26.6562 39.0234 26.5781C39.0859 26.5 39.1094 26.4141 39.0938 26.3203C39.0938 26.2109 39.125 26.125 39.1875 26.0625C39.3125 25.9688 39.4297 25.8828 39.5391 25.8047C39.6641 25.7266 39.8203 25.6875 40.0078 25.6875C40.1016 25.6875 40.1797 25.6953 40.2422 25.7109Z" fill="#4E4E4E"/>
</svg>
